<mxfile host="app.diagrams.net" modified="2022-05-23T13:51:07.071Z" agent="5.0 (Windows NT 10.0; Win64; x64) AppleWebKit/537.36 (KHTML, like Gecko) Chrome/100.0.4896.127 Safari/537.36 OPR/86.0.4363.59" etag="5Xjck8pgRpzF2k2OJz7-" version="18.1.1" type="github" pages="2">
  <diagram id="8xRi0O57_qgQfda5VgHy" name="Основная БД">
    <mxGraphModel dx="1382" dy="764" grid="1" gridSize="10" guides="1" tooltips="1" connect="1" arrows="1" fold="1" page="1" pageScale="1" pageWidth="827" pageHeight="1169" math="0" shadow="0">
      <root>
        <mxCell id="wMB9LOy6puQEDVOT8AMj-0" />
        <mxCell id="wMB9LOy6puQEDVOT8AMj-1" parent="wMB9LOy6puQEDVOT8AMj-0" />
        <mxCell id="wdRCQtRf3d7-_ysYJmjD-0" value="Profile" style="swimlane;fontStyle=0;childLayout=stackLayout;horizontal=1;startSize=30;horizontalStack=0;resizeParent=1;resizeParentMax=0;resizeLast=0;collapsible=1;marginBottom=0;fillColor=#ffe6cc;strokeColor=#d79b00;" parent="wMB9LOy6puQEDVOT8AMj-1" vertex="1">
          <mxGeometry x="320" y="40" width="160" height="90" as="geometry" />
        </mxCell>
        <mxCell id="wdRCQtRf3d7-_ysYJmjD-1" value="Фото" style="text;strokeColor=none;fillColor=none;align=left;verticalAlign=middle;spacingLeft=4;spacingRight=4;overflow=hidden;points=[[0,0.5],[1,0.5]];portConstraint=eastwest;rotatable=0;" parent="wdRCQtRf3d7-_ysYJmjD-0" vertex="1">
          <mxGeometry y="30" width="160" height="30" as="geometry" />
        </mxCell>
        <mxCell id="wdRCQtRf3d7-_ysYJmjD-2" value="Навыки" style="text;strokeColor=none;fillColor=none;align=left;verticalAlign=middle;spacingLeft=4;spacingRight=4;overflow=hidden;points=[[0,0.5],[1,0.5]];portConstraint=eastwest;rotatable=0;" parent="wdRCQtRf3d7-_ysYJmjD-0" vertex="1">
          <mxGeometry y="60" width="160" height="30" as="geometry" />
        </mxCell>
        <mxCell id="wdRCQtRf3d7-_ysYJmjD-10" value="Link (Show)" style="swimlane;fontStyle=0;childLayout=stackLayout;horizontal=1;startSize=30;horizontalStack=0;resizeParent=1;resizeParentMax=0;resizeLast=0;collapsible=1;marginBottom=0;fillColor=#d5e8d4;strokeColor=#82b366;" parent="wMB9LOy6puQEDVOT8AMj-1" vertex="1">
          <mxGeometry x="40" y="840" width="160" height="150" as="geometry" />
        </mxCell>
        <mxCell id="wdRCQtRf3d7-_ysYJmjD-11" value="Block" style="text;strokeColor=none;fillColor=none;align=left;verticalAlign=middle;spacingLeft=4;spacingRight=4;overflow=hidden;points=[[0,0.5],[1,0.5]];portConstraint=eastwest;rotatable=0;" parent="wdRCQtRf3d7-_ysYJmjD-10" vertex="1">
          <mxGeometry y="30" width="160" height="30" as="geometry" />
        </mxCell>
        <mxCell id="wdRCQtRf3d7-_ysYJmjD-13" value="Иконка" style="text;strokeColor=none;fillColor=none;align=left;verticalAlign=middle;spacingLeft=4;spacingRight=4;overflow=hidden;points=[[0,0.5],[1,0.5]];portConstraint=eastwest;rotatable=0;" parent="wdRCQtRf3d7-_ysYJmjD-10" vertex="1">
          <mxGeometry y="60" width="160" height="30" as="geometry" />
        </mxCell>
        <mxCell id="wdRCQtRf3d7-_ysYJmjD-14" value="Текст" style="text;strokeColor=none;fillColor=none;align=left;verticalAlign=middle;spacingLeft=4;spacingRight=4;overflow=hidden;points=[[0,0.5],[1,0.5]];portConstraint=eastwest;rotatable=0;" parent="wdRCQtRf3d7-_ysYJmjD-10" vertex="1">
          <mxGeometry y="90" width="160" height="30" as="geometry" />
        </mxCell>
        <mxCell id="wdRCQtRf3d7-_ysYJmjD-15" value="URL" style="text;strokeColor=none;fillColor=none;align=left;verticalAlign=middle;spacingLeft=4;spacingRight=4;overflow=hidden;points=[[0,0.5],[1,0.5]];portConstraint=eastwest;rotatable=0;" parent="wdRCQtRf3d7-_ysYJmjD-10" vertex="1">
          <mxGeometry y="120" width="160" height="30" as="geometry" />
        </mxCell>
        <mxCell id="wdRCQtRf3d7-_ysYJmjD-17" value="Show" style="swimlane;fontStyle=0;childLayout=stackLayout;horizontal=1;startSize=30;horizontalStack=0;resizeParent=1;resizeParentMax=0;resizeLast=0;collapsible=1;marginBottom=0;fillColor=#b1ddf0;strokeColor=#10739e;" parent="wMB9LOy6puQEDVOT8AMj-1" vertex="1">
          <mxGeometry x="620" y="40" width="120" height="60" as="geometry" />
        </mxCell>
        <mxCell id="wdRCQtRf3d7-_ysYJmjD-18" value="Показывать (bool)" style="text;strokeColor=none;fillColor=none;align=left;verticalAlign=middle;spacingLeft=4;spacingRight=4;overflow=hidden;points=[[0,0.5],[1,0.5]];portConstraint=eastwest;rotatable=0;" parent="wdRCQtRf3d7-_ysYJmjD-17" vertex="1">
          <mxGeometry y="30" width="120" height="30" as="geometry" />
        </mxCell>
        <mxCell id="wdRCQtRf3d7-_ysYJmjD-21" value="Field (Show)" style="swimlane;fontStyle=0;childLayout=stackLayout;horizontal=1;startSize=30;horizontalStack=0;resizeParent=1;resizeParentMax=0;resizeLast=0;collapsible=1;marginBottom=0;fillColor=#d5e8d4;strokeColor=#82b366;" parent="wMB9LOy6puQEDVOT8AMj-1" vertex="1">
          <mxGeometry x="600" y="480" width="160" height="150" as="geometry" />
        </mxCell>
        <mxCell id="wdRCQtRf3d7-_ysYJmjD-22" value="User" style="text;strokeColor=none;fillColor=none;align=left;verticalAlign=middle;spacingLeft=4;spacingRight=4;overflow=hidden;points=[[0,0.5],[1,0.5]];portConstraint=eastwest;rotatable=0;" parent="wdRCQtRf3d7-_ysYJmjD-21" vertex="1">
          <mxGeometry y="30" width="160" height="30" as="geometry" />
        </mxCell>
        <mxCell id="wdRCQtRf3d7-_ysYJmjD-23" value="Иконка" style="text;strokeColor=none;fillColor=none;align=left;verticalAlign=middle;spacingLeft=4;spacingRight=4;overflow=hidden;points=[[0,0.5],[1,0.5]];portConstraint=eastwest;rotatable=0;" parent="wdRCQtRf3d7-_ysYJmjD-21" vertex="1">
          <mxGeometry y="60" width="160" height="30" as="geometry" />
        </mxCell>
        <mxCell id="wdRCQtRf3d7-_ysYJmjD-24" value="Название" style="text;strokeColor=none;fillColor=none;align=left;verticalAlign=middle;spacingLeft=4;spacingRight=4;overflow=hidden;points=[[0,0.5],[1,0.5]];portConstraint=eastwest;rotatable=0;" parent="wdRCQtRf3d7-_ysYJmjD-21" vertex="1">
          <mxGeometry y="90" width="160" height="30" as="geometry" />
        </mxCell>
        <mxCell id="wdRCQtRf3d7-_ysYJmjD-25" value="Значение" style="text;strokeColor=none;fillColor=none;align=left;verticalAlign=middle;spacingLeft=4;spacingRight=4;overflow=hidden;points=[[0,0.5],[1,0.5]];portConstraint=eastwest;rotatable=0;" parent="wdRCQtRf3d7-_ysYJmjD-21" vertex="1">
          <mxGeometry y="120" width="160" height="30" as="geometry" />
        </mxCell>
        <mxCell id="wdRCQtRf3d7-_ysYJmjD-26" style="edgeStyle=orthogonalEdgeStyle;rounded=1;orthogonalLoop=1;jettySize=auto;html=1;exitX=0;exitY=0.5;exitDx=0;exitDy=0;entryX=0.5;entryY=0;entryDx=0;entryDy=0;fontFamily=Helvetica;fontSize=12;" parent="wMB9LOy6puQEDVOT8AMj-1" source="wdRCQtRf3d7-_ysYJmjD-22" target="wdRCQtRf3d7-_ysYJmjD-0" edge="1">
          <mxGeometry relative="1" as="geometry">
            <Array as="points">
              <mxPoint x="540" y="525" />
              <mxPoint x="540" y="20" />
              <mxPoint x="400" y="20" />
            </Array>
          </mxGeometry>
        </mxCell>
        <mxCell id="wdRCQtRf3d7-_ysYJmjD-38" value="&lt;h1&gt;&lt;span style=&quot;text-align: center&quot;&gt;&lt;font style=&quot;font-size: 24px&quot;&gt;Field&lt;/font&gt;&lt;/span&gt;&lt;br&gt;&lt;/h1&gt;&lt;p&gt;Поля закрепленные в шапке с небольшим содержанием (вопрос - ответ)&lt;/p&gt;" style="text;html=1;strokeColor=none;fillColor=none;spacing=5;spacingTop=-20;whiteSpace=wrap;overflow=hidden;rounded=0;fontFamily=Helvetica;fontSize=12;opacity=40;" parent="wMB9LOy6puQEDVOT8AMj-1" vertex="1">
          <mxGeometry x="600" y="370" width="160" height="110" as="geometry" />
        </mxCell>
        <mxCell id="wdRCQtRf3d7-_ysYJmjD-39" value="Skill" style="swimlane;fontStyle=0;childLayout=stackLayout;horizontal=1;startSize=30;horizontalStack=0;resizeParent=1;resizeParentMax=0;resizeLast=0;collapsible=1;marginBottom=0;fillColor=#fff2cc;strokeColor=#d6b656;" parent="wMB9LOy6puQEDVOT8AMj-1" vertex="1">
          <mxGeometry x="40" y="40" width="160" height="120" as="geometry" />
        </mxCell>
        <mxCell id="wdRCQtRf3d7-_ysYJmjD-40" value="Иконка" style="text;strokeColor=none;fillColor=none;align=left;verticalAlign=middle;spacingLeft=4;spacingRight=4;overflow=hidden;points=[[0,0.5],[1,0.5]];portConstraint=eastwest;rotatable=0;" parent="wdRCQtRf3d7-_ysYJmjD-39" vertex="1">
          <mxGeometry y="30" width="160" height="30" as="geometry" />
        </mxCell>
        <mxCell id="wdRCQtRf3d7-_ysYJmjD-41" value="Название" style="text;strokeColor=none;fillColor=none;align=left;verticalAlign=middle;spacingLeft=4;spacingRight=4;overflow=hidden;points=[[0,0.5],[1,0.5]];portConstraint=eastwest;rotatable=0;" parent="wdRCQtRf3d7-_ysYJmjD-39" vertex="1">
          <mxGeometry y="60" width="160" height="30" as="geometry" />
        </mxCell>
        <mxCell id="wdRCQtRf3d7-_ysYJmjD-42" value="Текст" style="text;strokeColor=none;fillColor=none;align=left;verticalAlign=middle;spacingLeft=4;spacingRight=4;overflow=hidden;points=[[0,0.5],[1,0.5]];portConstraint=eastwest;rotatable=0;" parent="wdRCQtRf3d7-_ysYJmjD-39" vertex="1">
          <mxGeometry y="90" width="160" height="30" as="geometry" />
        </mxCell>
        <mxCell id="wdRCQtRf3d7-_ysYJmjD-43" style="edgeStyle=orthogonalEdgeStyle;rounded=1;orthogonalLoop=1;jettySize=auto;html=1;exitX=0;exitY=0.5;exitDx=0;exitDy=0;entryX=0.5;entryY=0;entryDx=0;entryDy=0;fontFamily=Helvetica;fontSize=24;" parent="wMB9LOy6puQEDVOT8AMj-1" source="wdRCQtRf3d7-_ysYJmjD-2" target="wdRCQtRf3d7-_ysYJmjD-39" edge="1">
          <mxGeometry relative="1" as="geometry" />
        </mxCell>
        <mxCell id="wdRCQtRf3d7-_ysYJmjD-44" value="Tag (Show)" style="swimlane;fontStyle=0;childLayout=stackLayout;horizontal=1;startSize=30;horizontalStack=0;resizeParent=1;resizeParentMax=0;resizeLast=0;collapsible=1;marginBottom=0;fillColor=#ffe6cc;strokeColor=#d79b00;" parent="wMB9LOy6puQEDVOT8AMj-1" vertex="1">
          <mxGeometry x="600" y="680" width="160" height="90" as="geometry" />
        </mxCell>
        <mxCell id="wdRCQtRf3d7-_ysYJmjD-45" value="Иконка" style="text;strokeColor=none;fillColor=none;align=left;verticalAlign=middle;spacingLeft=4;spacingRight=4;overflow=hidden;points=[[0,0.5],[1,0.5]];portConstraint=eastwest;rotatable=0;" parent="wdRCQtRf3d7-_ysYJmjD-44" vertex="1">
          <mxGeometry y="30" width="160" height="30" as="geometry" />
        </mxCell>
        <mxCell id="wdRCQtRf3d7-_ysYJmjD-46" value="Название" style="text;strokeColor=none;fillColor=none;align=left;verticalAlign=middle;spacingLeft=4;spacingRight=4;overflow=hidden;points=[[0,0.5],[1,0.5]];portConstraint=eastwest;rotatable=0;" parent="wdRCQtRf3d7-_ysYJmjD-44" vertex="1">
          <mxGeometry y="60" width="160" height="30" as="geometry" />
        </mxCell>
        <mxCell id="wdRCQtRf3d7-_ysYJmjD-47" value="Resume (Show)" style="swimlane;fontStyle=0;childLayout=stackLayout;horizontal=1;startSize=30;horizontalStack=0;resizeParent=1;resizeParentMax=0;resizeLast=0;collapsible=1;marginBottom=0;fillColor=#f5f5f5;strokeColor=#666666;fontColor=#333333;" parent="wMB9LOy6puQEDVOT8AMj-1" vertex="1">
          <mxGeometry x="320" y="200" width="160" height="210" as="geometry" />
        </mxCell>
        <mxCell id="wdRCQtRf3d7-_ysYJmjD-48" value="User" style="text;strokeColor=none;fillColor=none;align=left;verticalAlign=middle;spacingLeft=4;spacingRight=4;overflow=hidden;points=[[0,0.5],[1,0.5]];portConstraint=eastwest;rotatable=0;" parent="wdRCQtRf3d7-_ysYJmjD-47" vertex="1">
          <mxGeometry y="30" width="160" height="30" as="geometry" />
        </mxCell>
        <mxCell id="AsM201kC9dfPvU59sMDy-24" value="Контакты" style="text;strokeColor=none;fillColor=none;align=left;verticalAlign=middle;spacingLeft=4;spacingRight=4;overflow=hidden;points=[[0,0.5],[1,0.5]];portConstraint=eastwest;rotatable=0;" parent="wdRCQtRf3d7-_ysYJmjD-47" vertex="1">
          <mxGeometry y="60" width="160" height="30" as="geometry" />
        </mxCell>
        <mxCell id="wdRCQtRf3d7-_ysYJmjD-49" value="Фото" style="text;strokeColor=none;fillColor=none;align=left;verticalAlign=middle;spacingLeft=4;spacingRight=4;overflow=hidden;points=[[0,0.5],[1,0.5]];portConstraint=eastwest;rotatable=0;" parent="wdRCQtRf3d7-_ysYJmjD-47" vertex="1">
          <mxGeometry y="90" width="160" height="30" as="geometry" />
        </mxCell>
        <mxCell id="wdRCQtRf3d7-_ysYJmjD-50" value="Описание" style="text;strokeColor=none;fillColor=none;align=left;verticalAlign=middle;spacingLeft=4;spacingRight=4;overflow=hidden;points=[[0,0.5],[1,0.5]];portConstraint=eastwest;rotatable=0;" parent="wdRCQtRf3d7-_ysYJmjD-47" vertex="1">
          <mxGeometry y="120" width="160" height="30" as="geometry" />
        </mxCell>
        <mxCell id="wdRCQtRf3d7-_ysYJmjD-51" value="Тэги" style="text;strokeColor=none;fillColor=none;align=left;verticalAlign=middle;spacingLeft=4;spacingRight=4;overflow=hidden;points=[[0,0.5],[1,0.5]];portConstraint=eastwest;rotatable=0;" parent="wdRCQtRf3d7-_ysYJmjD-47" vertex="1">
          <mxGeometry y="150" width="160" height="30" as="geometry" />
        </mxCell>
        <mxCell id="AsM201kC9dfPvU59sMDy-27" value="date_edit" style="text;strokeColor=none;fillColor=none;align=left;verticalAlign=middle;spacingLeft=4;spacingRight=4;overflow=hidden;points=[[0,0.5],[1,0.5]];portConstraint=eastwest;rotatable=0;" parent="wdRCQtRf3d7-_ysYJmjD-47" vertex="1">
          <mxGeometry y="180" width="160" height="30" as="geometry" />
        </mxCell>
        <mxCell id="wdRCQtRf3d7-_ysYJmjD-52" style="edgeStyle=orthogonalEdgeStyle;rounded=1;orthogonalLoop=1;jettySize=auto;html=1;exitX=1;exitY=0.5;exitDx=0;exitDy=0;entryX=0.5;entryY=0;entryDx=0;entryDy=0;elbow=vertical;" parent="wMB9LOy6puQEDVOT8AMj-1" source="wdRCQtRf3d7-_ysYJmjD-48" target="wdRCQtRf3d7-_ysYJmjD-0" edge="1">
          <mxGeometry relative="1" as="geometry">
            <Array as="points">
              <mxPoint x="540" y="245" />
              <mxPoint x="540" y="20" />
              <mxPoint x="400" y="20" />
            </Array>
          </mxGeometry>
        </mxCell>
        <mxCell id="wdRCQtRf3d7-_ysYJmjD-54" style="edgeStyle=orthogonalEdgeStyle;rounded=1;orthogonalLoop=1;jettySize=auto;html=1;exitX=1;exitY=0.5;exitDx=0;exitDy=0;entryX=0.5;entryY=0;entryDx=0;entryDy=0;elbow=vertical;" parent="wMB9LOy6puQEDVOT8AMj-1" source="wdRCQtRf3d7-_ysYJmjD-51" target="wdRCQtRf3d7-_ysYJmjD-44" edge="1">
          <mxGeometry relative="1" as="geometry">
            <Array as="points">
              <mxPoint x="500" y="365" />
              <mxPoint x="500" y="660" />
              <mxPoint x="680" y="660" />
            </Array>
          </mxGeometry>
        </mxCell>
        <mxCell id="wdRCQtRf3d7-_ysYJmjD-55" value="Icon (Show)" style="swimlane;fontStyle=0;childLayout=stackLayout;horizontal=1;startSize=30;horizontalStack=0;resizeParent=1;resizeParentMax=0;resizeLast=0;collapsible=1;marginBottom=0;fillColor=#b0e3e6;strokeColor=#0e8088;" parent="wMB9LOy6puQEDVOT8AMj-1" vertex="1">
          <mxGeometry x="600" y="200" width="160" height="60" as="geometry" />
        </mxCell>
        <mxCell id="wdRCQtRf3d7-_ysYJmjD-56" value="Иконка" style="text;align=left;verticalAlign=middle;spacingLeft=4;spacingRight=4;overflow=hidden;points=[[0,0.5],[1,0.5]];portConstraint=eastwest;rotatable=0;" parent="wdRCQtRf3d7-_ysYJmjD-55" vertex="1">
          <mxGeometry y="30" width="160" height="30" as="geometry" />
        </mxCell>
        <mxCell id="wdRCQtRf3d7-_ysYJmjD-60" value="Block (Show,OrderedModel)" style="swimlane;fontStyle=0;childLayout=stackLayout;horizontal=1;startSize=30;horizontalStack=0;resizeParent=1;resizeParentMax=0;resizeLast=0;collapsible=1;marginBottom=0;fillColor=#fff2cc;strokeColor=#d6b656;" parent="wMB9LOy6puQEDVOT8AMj-1" vertex="1">
          <mxGeometry x="40" y="680" width="160" height="120" as="geometry" />
        </mxCell>
        <mxCell id="wdRCQtRf3d7-_ysYJmjD-61" value="Заголовок" style="text;strokeColor=none;fillColor=none;align=left;verticalAlign=middle;spacingLeft=4;spacingRight=4;overflow=hidden;points=[[0,0.5],[1,0.5]];portConstraint=eastwest;rotatable=0;" parent="wdRCQtRf3d7-_ysYJmjD-60" vertex="1">
          <mxGeometry y="30" width="160" height="30" as="geometry" />
        </mxCell>
        <mxCell id="wdRCQtRf3d7-_ysYJmjD-63" value="Reusme" style="text;strokeColor=none;fillColor=none;align=left;verticalAlign=middle;spacingLeft=4;spacingRight=4;overflow=hidden;points=[[0,0.5],[1,0.5]];portConstraint=eastwest;rotatable=0;" parent="wdRCQtRf3d7-_ysYJmjD-60" vertex="1">
          <mxGeometry y="60" width="160" height="30" as="geometry" />
        </mxCell>
        <mxCell id="AsM201kC9dfPvU59sMDy-28" value="date_edit" style="text;strokeColor=none;fillColor=none;align=left;verticalAlign=middle;spacingLeft=4;spacingRight=4;overflow=hidden;points=[[0,0.5],[1,0.5]];portConstraint=eastwest;rotatable=0;" parent="wdRCQtRf3d7-_ysYJmjD-60" vertex="1">
          <mxGeometry y="90" width="160" height="30" as="geometry" />
        </mxCell>
        <mxCell id="wdRCQtRf3d7-_ysYJmjD-65" value="Text" style="swimlane;fontStyle=0;childLayout=stackLayout;horizontal=1;startSize=30;horizontalStack=0;resizeParent=1;resizeParentMax=0;resizeLast=0;collapsible=1;marginBottom=0;fillColor=#dae8fc;strokeColor=#6c8ebf;" parent="wMB9LOy6puQEDVOT8AMj-1" vertex="1">
          <mxGeometry x="40" y="200" width="160" height="120" as="geometry" />
        </mxCell>
        <mxCell id="wdRCQtRf3d7-_ysYJmjD-66" value="Текст" style="text;strokeColor=none;fillColor=none;align=left;verticalAlign=middle;spacingLeft=4;spacingRight=4;overflow=hidden;points=[[0,0.5],[1,0.5]];portConstraint=eastwest;rotatable=0;" parent="wdRCQtRf3d7-_ysYJmjD-65" vertex="1">
          <mxGeometry y="30" width="160" height="30" as="geometry" />
        </mxCell>
        <mxCell id="wdRCQtRf3d7-_ysYJmjD-67" value="Порядок" style="text;strokeColor=none;fillColor=none;align=left;verticalAlign=middle;spacingLeft=4;spacingRight=4;overflow=hidden;points=[[0,0.5],[1,0.5]];portConstraint=eastwest;rotatable=0;" parent="wdRCQtRf3d7-_ysYJmjD-65" vertex="1">
          <mxGeometry y="60" width="160" height="30" as="geometry" />
        </mxCell>
        <mxCell id="wdRCQtRf3d7-_ysYJmjD-68" value="Block" style="text;strokeColor=none;fillColor=none;align=left;verticalAlign=middle;spacingLeft=4;spacingRight=4;overflow=hidden;points=[[0,0.5],[1,0.5]];portConstraint=eastwest;rotatable=0;" parent="wdRCQtRf3d7-_ysYJmjD-65" vertex="1">
          <mxGeometry y="90" width="160" height="30" as="geometry" />
        </mxCell>
        <mxCell id="q6FLKcyp0yu_ze5yjgD--0" value="File" style="swimlane;fontStyle=0;childLayout=stackLayout;horizontal=1;startSize=30;horizontalStack=0;resizeParent=1;resizeParentMax=0;resizeLast=0;collapsible=1;marginBottom=0;fillColor=#e1d5e7;strokeColor=#9673a6;" parent="wMB9LOy6puQEDVOT8AMj-1" vertex="1">
          <mxGeometry x="40" y="480" width="160" height="90" as="geometry" />
        </mxCell>
        <mxCell id="q6FLKcyp0yu_ze5yjgD--3" value="Block" style="text;strokeColor=none;fillColor=none;align=left;verticalAlign=middle;spacingLeft=4;spacingRight=4;overflow=hidden;points=[[0,0.5],[1,0.5]];portConstraint=eastwest;rotatable=0;" parent="q6FLKcyp0yu_ze5yjgD--0" vertex="1">
          <mxGeometry y="30" width="160" height="30" as="geometry" />
        </mxCell>
        <mxCell id="q6FLKcyp0yu_ze5yjgD--1" value="Файл" style="text;strokeColor=none;fillColor=none;align=left;verticalAlign=middle;spacingLeft=4;spacingRight=4;overflow=hidden;points=[[0,0.5],[1,0.5]];portConstraint=eastwest;rotatable=0;" parent="q6FLKcyp0yu_ze5yjgD--0" vertex="1">
          <mxGeometry y="60" width="160" height="30" as="geometry" />
        </mxCell>
        <mxCell id="AsM201kC9dfPvU59sMDy-0" style="edgeStyle=orthogonalEdgeStyle;rounded=1;orthogonalLoop=1;jettySize=auto;html=1;exitX=1;exitY=0.5;exitDx=0;exitDy=0;entryX=0.5;entryY=0;entryDx=0;entryDy=0;" parent="wMB9LOy6puQEDVOT8AMj-1" source="q6FLKcyp0yu_ze5yjgD--3" target="wdRCQtRf3d7-_ysYJmjD-60" edge="1">
          <mxGeometry relative="1" as="geometry">
            <Array as="points">
              <mxPoint x="220" y="525" />
              <mxPoint x="220" y="620" />
              <mxPoint x="120" y="620" />
            </Array>
          </mxGeometry>
        </mxCell>
        <mxCell id="AsM201kC9dfPvU59sMDy-2" style="edgeStyle=orthogonalEdgeStyle;rounded=1;orthogonalLoop=1;jettySize=auto;html=1;exitX=1;exitY=0.5;exitDx=0;exitDy=0;entryX=0.5;entryY=0;entryDx=0;entryDy=0;dashed=1;" parent="wMB9LOy6puQEDVOT8AMj-1" source="wdRCQtRf3d7-_ysYJmjD-68" target="wdRCQtRf3d7-_ysYJmjD-60" edge="1">
          <mxGeometry relative="1" as="geometry">
            <Array as="points">
              <mxPoint x="220" y="305" />
              <mxPoint x="220" y="620" />
              <mxPoint x="120" y="620" />
            </Array>
          </mxGeometry>
        </mxCell>
        <mxCell id="AsM201kC9dfPvU59sMDy-4" style="edgeStyle=orthogonalEdgeStyle;orthogonalLoop=1;jettySize=auto;html=1;exitX=1;exitY=0.5;exitDx=0;exitDy=0;entryX=0.5;entryY=0;entryDx=0;entryDy=0;rounded=1;" parent="wMB9LOy6puQEDVOT8AMj-1" source="wdRCQtRf3d7-_ysYJmjD-11" target="wdRCQtRf3d7-_ysYJmjD-60" edge="1">
          <mxGeometry relative="1" as="geometry">
            <Array as="points">
              <mxPoint x="220" y="885" />
              <mxPoint x="220" y="620" />
              <mxPoint x="120" y="620" />
            </Array>
          </mxGeometry>
        </mxCell>
        <mxCell id="AsM201kC9dfPvU59sMDy-5" style="edgeStyle=orthogonalEdgeStyle;rounded=1;orthogonalLoop=1;jettySize=auto;html=1;exitX=1;exitY=0.5;exitDx=0;exitDy=0;entryX=0.5;entryY=0;entryDx=0;entryDy=0;" parent="wMB9LOy6puQEDVOT8AMj-1" source="wdRCQtRf3d7-_ysYJmjD-63" target="wdRCQtRf3d7-_ysYJmjD-47" edge="1">
          <mxGeometry relative="1" as="geometry" />
        </mxCell>
        <mxCell id="AsM201kC9dfPvU59sMDy-8" style="edgeStyle=orthogonalEdgeStyle;rounded=1;orthogonalLoop=1;jettySize=auto;html=1;exitX=0;exitY=0.5;exitDx=0;exitDy=0;entryX=0.5;entryY=0;entryDx=0;entryDy=0;" parent="wMB9LOy6puQEDVOT8AMj-1" source="wdRCQtRf3d7-_ysYJmjD-45" target="wdRCQtRf3d7-_ysYJmjD-55" edge="1">
          <mxGeometry relative="1" as="geometry">
            <Array as="points">
              <mxPoint x="580" y="725" />
              <mxPoint x="580" y="180" />
              <mxPoint x="680" y="180" />
            </Array>
          </mxGeometry>
        </mxCell>
        <mxCell id="AsM201kC9dfPvU59sMDy-9" style="edgeStyle=orthogonalEdgeStyle;rounded=1;orthogonalLoop=1;jettySize=auto;html=1;exitX=0;exitY=0.5;exitDx=0;exitDy=0;entryX=0.5;entryY=0;entryDx=0;entryDy=0;" parent="wMB9LOy6puQEDVOT8AMj-1" source="wdRCQtRf3d7-_ysYJmjD-23" target="wdRCQtRf3d7-_ysYJmjD-55" edge="1">
          <mxGeometry relative="1" as="geometry">
            <Array as="points">
              <mxPoint x="580" y="555" />
              <mxPoint x="580" y="180" />
              <mxPoint x="680" y="180" />
            </Array>
          </mxGeometry>
        </mxCell>
        <mxCell id="AsM201kC9dfPvU59sMDy-10" style="edgeStyle=orthogonalEdgeStyle;rounded=1;orthogonalLoop=1;jettySize=auto;html=1;exitX=1;exitY=0.5;exitDx=0;exitDy=0;entryX=0.5;entryY=0;entryDx=0;entryDy=0;" parent="wMB9LOy6puQEDVOT8AMj-1" source="wdRCQtRf3d7-_ysYJmjD-13" target="wdRCQtRf3d7-_ysYJmjD-55" edge="1">
          <mxGeometry relative="1" as="geometry">
            <Array as="points">
              <mxPoint x="580" y="915" />
              <mxPoint x="580" y="180" />
              <mxPoint x="680" y="180" />
            </Array>
          </mxGeometry>
        </mxCell>
        <mxCell id="AsM201kC9dfPvU59sMDy-16" value="Contact" style="swimlane;fontStyle=0;childLayout=stackLayout;horizontal=1;startSize=30;horizontalStack=0;resizeParent=1;resizeParentMax=0;resizeLast=0;collapsible=1;marginBottom=0;fillColor=#bac8d3;strokeColor=#23445d;" parent="wMB9LOy6puQEDVOT8AMj-1" vertex="1">
          <mxGeometry x="320" y="480" width="160" height="90" as="geometry" />
        </mxCell>
        <mxCell id="AsM201kC9dfPvU59sMDy-17" value="User" style="text;strokeColor=none;fillColor=none;align=left;verticalAlign=middle;spacingLeft=4;spacingRight=4;overflow=hidden;points=[[0,0.5],[1,0.5]];portConstraint=eastwest;rotatable=0;" parent="AsM201kC9dfPvU59sMDy-16" vertex="1">
          <mxGeometry y="30" width="160" height="30" as="geometry" />
        </mxCell>
        <mxCell id="AsM201kC9dfPvU59sMDy-18" value="Телефон | URL | email" style="text;strokeColor=none;fillColor=none;align=left;verticalAlign=middle;spacingLeft=4;spacingRight=4;overflow=hidden;points=[[0,0.5],[1,0.5]];portConstraint=eastwest;rotatable=0;" parent="AsM201kC9dfPvU59sMDy-16" vertex="1">
          <mxGeometry y="60" width="160" height="30" as="geometry" />
        </mxCell>
        <mxCell id="AsM201kC9dfPvU59sMDy-23" style="edgeStyle=orthogonalEdgeStyle;rounded=1;orthogonalLoop=1;jettySize=auto;html=1;exitX=1;exitY=0.5;exitDx=0;exitDy=0;entryX=0.5;entryY=0;entryDx=0;entryDy=0;" parent="wMB9LOy6puQEDVOT8AMj-1" source="AsM201kC9dfPvU59sMDy-17" target="wdRCQtRf3d7-_ysYJmjD-0" edge="1">
          <mxGeometry relative="1" as="geometry">
            <Array as="points">
              <mxPoint x="540" y="525" />
              <mxPoint x="540" y="20" />
              <mxPoint x="400" y="20" />
            </Array>
          </mxGeometry>
        </mxCell>
        <mxCell id="AsM201kC9dfPvU59sMDy-25" style="edgeStyle=orthogonalEdgeStyle;rounded=1;orthogonalLoop=1;jettySize=auto;html=1;exitX=0;exitY=0.5;exitDx=0;exitDy=0;entryX=0.5;entryY=0;entryDx=0;entryDy=0;" parent="wMB9LOy6puQEDVOT8AMj-1" source="AsM201kC9dfPvU59sMDy-24" target="AsM201kC9dfPvU59sMDy-16" edge="1">
          <mxGeometry relative="1" as="geometry">
            <Array as="points">
              <mxPoint x="300" y="275" />
              <mxPoint x="300" y="460" />
              <mxPoint x="400" y="460" />
            </Array>
          </mxGeometry>
        </mxCell>
      </root>
    </mxGraphModel>
  </diagram>
  <diagram id="aIqlY4wXIltUFNFi1JP-" name="БД Уроков">
    <mxGraphModel dx="1382" dy="764" grid="1" gridSize="10" guides="1" tooltips="1" connect="1" arrows="1" fold="1" page="1" pageScale="1" pageWidth="827" pageHeight="1169" math="0" shadow="0">
      <root>
        <mxCell id="0" />
        <mxCell id="1" parent="0" />
        <mxCell id="T7MRH3JmGST5ehXiivnL-1" value="Topic" style="swimlane;fontStyle=0;childLayout=stackLayout;horizontal=1;startSize=30;horizontalStack=0;resizeParent=1;resizeParentMax=0;resizeLast=0;collapsible=1;marginBottom=0;fillColor=#dae8fc;strokeColor=#6c8ebf;" parent="1" vertex="1">
          <mxGeometry x="130" y="120" width="140" height="90" as="geometry" />
        </mxCell>
        <mxCell id="T7MRH3JmGST5ehXiivnL-2" value="Название" style="text;strokeColor=none;fillColor=none;align=left;verticalAlign=middle;spacingLeft=4;spacingRight=4;overflow=hidden;points=[[0,0.5],[1,0.5]];portConstraint=eastwest;rotatable=0;" parent="T7MRH3JmGST5ehXiivnL-1" vertex="1">
          <mxGeometry y="30" width="140" height="30" as="geometry" />
        </mxCell>
        <mxCell id="T7MRH3JmGST5ehXiivnL-3" value="Описагние" style="text;strokeColor=none;fillColor=none;align=left;verticalAlign=middle;spacingLeft=4;spacingRight=4;overflow=hidden;points=[[0,0.5],[1,0.5]];portConstraint=eastwest;rotatable=0;" parent="T7MRH3JmGST5ehXiivnL-1" vertex="1">
          <mxGeometry y="60" width="140" height="30" as="geometry" />
        </mxCell>
        <mxCell id="T7MRH3JmGST5ehXiivnL-5" value="Lesson" style="swimlane;fontStyle=0;childLayout=stackLayout;horizontal=1;startSize=30;horizontalStack=0;resizeParent=1;resizeParentMax=0;resizeLast=0;collapsible=1;marginBottom=0;fillColor=#ffe6cc;strokeColor=#d79b00;" parent="1" vertex="1">
          <mxGeometry x="450" y="280" width="140" height="120" as="geometry" />
        </mxCell>
        <mxCell id="9tj85I3uxTqn-_OnN1PG-1" value="Тема" style="text;strokeColor=none;fillColor=none;align=left;verticalAlign=middle;spacingLeft=4;spacingRight=4;overflow=hidden;points=[[0,0.5],[1,0.5]];portConstraint=eastwest;rotatable=0;" parent="T7MRH3JmGST5ehXiivnL-5" vertex="1">
          <mxGeometry y="30" width="140" height="30" as="geometry" />
        </mxCell>
        <mxCell id="T7MRH3JmGST5ehXiivnL-6" value="Название" style="text;strokeColor=none;fillColor=none;align=left;verticalAlign=middle;spacingLeft=4;spacingRight=4;overflow=hidden;points=[[0,0.5],[1,0.5]];portConstraint=eastwest;rotatable=0;" parent="T7MRH3JmGST5ehXiivnL-5" vertex="1">
          <mxGeometry y="60" width="140" height="30" as="geometry" />
        </mxCell>
        <mxCell id="T7MRH3JmGST5ehXiivnL-7" value="Текст" style="text;strokeColor=none;fillColor=none;align=left;verticalAlign=middle;spacingLeft=4;spacingRight=4;overflow=hidden;points=[[0,0.5],[1,0.5]];portConstraint=eastwest;rotatable=0;" parent="T7MRH3JmGST5ehXiivnL-5" vertex="1">
          <mxGeometry y="90" width="140" height="30" as="geometry" />
        </mxCell>
        <mxCell id="9tj85I3uxTqn-_OnN1PG-2" style="edgeStyle=orthogonalEdgeStyle;rounded=0;orthogonalLoop=1;jettySize=auto;html=1;exitX=0;exitY=0.5;exitDx=0;exitDy=0;entryX=0.5;entryY=0;entryDx=0;entryDy=0;curved=1;" parent="1" source="9tj85I3uxTqn-_OnN1PG-1" target="T7MRH3JmGST5ehXiivnL-1" edge="1">
          <mxGeometry relative="1" as="geometry" />
        </mxCell>
      </root>
    </mxGraphModel>
  </diagram>
</mxfile>
